<svg width="37" height="38" viewBox="0 0 37 38" fill="none" xmlns="http://www.w3.org/2000/svg">
<g clip-path="url(#clip0_12_32)">
<path d="M27.36 7.07997C26.57 7.65997 25.88 8.35997 25.27 9.10997C24.97 9.48997 24.68 9.87997 24.41 10.28C24.14 10.69 23.89 11.08 23.65 11.54L23.83 11.28L20.95 14.32C20.95 14.32 20.89 14.38 20.87 14.42L20.79 14.57L19.15 17.75C18.87 18.3 19.08 18.97 19.63 19.25C20.18 19.53 20.85 19.32 21.13 18.77C21.17 18.69 21.21 18.6 21.22 18.51L22.03 15.02L21.87 15.27L24.98 12.46C25.04 12.41 25.08 12.35 25.12 12.28L25.16 12.2C25.29 11.82 25.47 11.39 25.66 11C25.85 10.6 26.06 10.2 26.28 9.81997C26.73 9.04997 27.25 8.32997 27.87 7.70997C28.04 7.54997 28.04 7.29997 27.88 7.13997C27.74 6.99997 27.51 6.97997 27.36 7.09997L27.36 7.07997Z" fill="#FFEF00"/>
<path d="M14.01 0.440013C14.13 1.81001 14.64 3.05001 15.18 4.23001C15.74 5.42001 16.38 6.53001 17.11 7.64001L16.96 7.34001L18.58 12.65L18.58 12.33L16.83 16.81C16.55 17.54 16.91 18.36 17.63 18.64C18.35 18.92 19.18 18.56 19.46 17.84C19.51 17.7 19.54 17.56 19.55 17.42L19.87 12.62L19.87 12.42C19.87 12.42 19.87 12.34 19.87 12.31L18.64 6.90001C18.62 6.81001 18.58 6.73001 18.54 6.66001L18.5 6.60001C17.72 5.68001 16.97 4.67001 16.31 3.63001C15.66 2.59001 15.07 1.49001 14.83 0.350013L14.83 0.320013C14.78 0.100013 14.56 -0.0399875 14.35 0.0100125C14.15 0.0500125 14.01 0.240013 14.03 0.440013L14.01 0.440013Z" fill="#FFEF00"/>
<path d="M0.0800133 4.64001C0.690014 5.46001 1.46001 6.09001 2.25001 6.67001C3.04001 7.25001 3.88001 7.74001 4.73001 8.20001C5.58001 8.66001 6.45001 9.08001 7.34001 9.47001C8.23001 9.86001 9.11001 10.22 10.04 10.55L9.66001 10.32L13.62 14.18L13.47 13.93L14.05 17.96C14.16 18.74 14.88 19.27 15.66 19.16C16.44 19.05 16.97 18.33 16.86 17.55C16.84 17.38 16.78 17.21 16.7 17.07L14.73 13.51L14.63 13.33C14.63 13.33 14.6 13.28 14.58 13.26L10.91 9.13001C10.82 9.03001 10.72 8.97001 10.61 8.93001L10.54 8.91001C8.78001 8.43001 6.98001 7.82001 5.29001 7.08001C4.44001 6.71001 3.61001 6.30001 2.83001 5.82001C2.05001 5.34001 1.30001 4.81001 0.720013 4.15001C0.570013 3.98001 0.310015 3.97001 0.140015 4.11001C-0.0199852 4.25001 -0.0399876 4.49001 0.0800133 4.65001L0.0800133 4.64001Z" fill="#FFEF00"/>
<path d="M27.36 30.92C26.57 30.34 25.88 29.64 25.27 28.89C24.97 28.51 24.68 28.12 24.41 27.72C24.14 27.31 23.89 26.92 23.65 26.46L23.83 26.72L20.95 23.68C20.95 23.68 20.89 23.62 20.87 23.58L20.79 23.43L19.15 20.25C18.87 19.7 19.08 19.03 19.63 18.75C20.18 18.47 20.85 18.68 21.13 19.23C21.17 19.31 21.21 19.4 21.22 19.49L22.03 22.98L21.87 22.73L24.98 25.54C25.04 25.59 25.08 25.65 25.12 25.72L25.16 25.8C25.29 26.18 25.47 26.61 25.66 27.01C25.85 27.41 26.06 27.81 26.28 28.19C26.73 28.96 27.25 29.68 27.87 30.3C28.04 30.46 28.04 30.71 27.88 30.87C27.74 31.01 27.51 31.03 27.36 30.91L27.36 30.92Z" fill="#FFEF00"/>
<path d="M14.01 37.56C14.13 36.19 14.64 34.95 15.18 33.77C15.74 32.58 16.38 31.47 17.11 30.36L16.96 30.66L18.58 25.35L18.58 25.67L16.83 21.19C16.55 20.46 16.91 19.64 17.63 19.36C18.35 19.08 19.18 19.44 19.46 20.16C19.51 20.3 19.54 20.44 19.55 20.58L19.87 25.38L19.87 25.58C19.87 25.58 19.87 25.66 19.87 25.69L18.64 31.1C18.62 31.19 18.58 31.27 18.54 31.34L18.5 31.4C17.72 32.32 16.97 33.33 16.31 34.37C15.66 35.41 15.07 36.51 14.83 37.65L14.83 37.68C14.78 37.9 14.56 38.04 14.35 37.99C14.15 37.95 14.01 37.76 14.03 37.56L14.01 37.56Z" fill="#FFEF00"/>
<path d="M0.0800134 33.35C0.690014 32.53 1.46001 31.89 2.25001 31.32C3.04001 30.74 3.88001 30.24 4.73001 29.79C5.58001 29.33 6.45001 28.91 7.34001 28.52C8.23001 28.13 9.11001 27.77 10.04 27.44L9.66001 27.67L13.62 23.81L13.47 24.06L14.05 20.03C14.16 19.25 14.88 18.72 15.66 18.83C16.44 18.94 16.97 19.66 16.86 20.44C16.84 20.61 16.78 20.78 16.7 20.92L14.73 24.48L14.63 24.66C14.63 24.66 14.6 24.71 14.58 24.73L10.91 28.86C10.82 28.96 10.72 29.03 10.61 29.07L10.54 29.1C8.78001 29.58 6.98001 30.19 5.29001 30.93C4.44001 31.3 3.61001 31.71 2.83001 32.19C2.05001 32.67 1.30001 33.2 0.720013 33.86C0.570013 34.03 0.310015 34.04 0.140015 33.9C-0.019985 33.76 -0.0399874 33.52 0.0800134 33.36L0.0800134 33.35Z" fill="#FFEF00"/>
<path d="M21.23 16C19.66 16 12 17 12 19C12 21 19.66 22 21.23 22C22.8 22 24 20.7 24 19C24 17.3 22.8 16 21.23 16Z" fill="url(#paint0_radial_12_32)"/>
<path d="M30.98 21.03L30.03 23C31.36 23 33.55 22.43 34 20.01C34 20.01 33.14 20.83 30.98 21.04L30.98 21.03Z" fill="#4E342E"/>
<path d="M34 17.99C33.55 15.57 31.36 15 30.03 15L30.98 16.97C33.13 17.18 34 18 34 18L34 17.99Z" fill="#4E342E"/>
<path d="M26.94 24C24.06 24 23 21 23 19C23 17 24.08 14 26.94 14C29.37 14 33 16 33 19C33 22 29.36 24 26.94 24Z" fill="url(#paint1_radial_12_32)"/>
<path d="M27 23C26.4 23 26 22.6 26 22C26 21.4 26.4 21 27 21C27.6 21 28 21.4 28 22C28 22.6 27.6 23 27 23Z" fill="url(#paint2_radial_12_32)"/>
<path d="M27 17C26.4 17 26 16.6 26 16C26 15.4 26.4 15 27 15C27.6 15 28 15.4 28 16C28 16.6 27.6 17 27 17Z" fill="url(#paint3_radial_12_32)"/>
<path d="M7 14C3.1 14 -1.87157e-06 17 -1.84772e-06 19C-1.82387e-06 21 3.1 24 7 24C10.9 24 14 23 14 19C14 15 10.9 14 7 14Z" fill="url(#paint4_radial_12_32)"/>
<path d="M36.64 8.11001C36.96 8.29001 37.08 8.69001 36.91 9.01001C36.25 10.23 35.19 11.07 34.1 11.69C33.55 12 32.98 12.25 32.4 12.47C31.96 12.63 31.52 12.77 31.06 12.88C31.14 13.43 31.18 13.96 31.18 14.5C31.18 15.2 31.08 15.91 30.89 16.6C30.83 16.8 30.63 16.93 30.42 16.88C30.21 16.83 30.07 16.62 30.12 16.41C30.26 15.79 30.31 15.15 30.28 14.51C30.26 13.88 30.17 13.21 30.02 12.63C29.95 12.37 30.11 12.09 30.38 12.03L30.4 12.03C30.93 11.89 31.48 11.69 32.01 11.47C32.53 11.25 33.04 10.99 33.52 10.7C34.47 10.11 35.29 9.35001 35.73 8.43001L35.73 8.42001C35.73 8.42001 35.74 8.40001 35.75 8.39001C35.93 8.07001 36.33 7.95001 36.65 8.13001L36.64 8.11001Z" fill="#FF06FF"/>
<path d="M36.64 29.89C36.96 29.71 37.08 29.31 36.91 28.99C36.25 27.77 35.19 26.93 34.1 26.32C33.55 26.01 32.98 25.76 32.4 25.54C31.96 25.38 31.52 25.24 31.06 25.13C31.14 24.58 31.18 24.05 31.18 23.51C31.18 22.81 31.08 22.1 30.89 21.41C30.83 21.21 30.63 21.08 30.42 21.13C30.21 21.18 30.07 21.39 30.12 21.6C30.26 22.22 30.31 22.86 30.28 23.5C30.26 24.13 30.17 24.8 30.02 25.38C29.95 25.64 30.11 25.92 30.38 25.98L30.4 25.98C30.93 26.12 31.48 26.32 32.01 26.54C32.53 26.76 33.04 27.02 33.52 27.31C34.47 27.9 35.29 28.66 35.73 29.58L35.73 29.59C35.73 29.59 35.74 29.61 35.75 29.62C35.93 29.94 36.33 30.06 36.65 29.88L36.64 29.89Z" fill="#FF06FF"/>
</g>
<defs>
<radialGradient id="paint0_radial_12_32" cx="0" cy="0" r="1" gradientUnits="userSpaceOnUse" gradientTransform="translate(18.7069 18.98) rotate(90) scale(3.19 6.4757)">
<stop stop-color="#FF06FF"/>
<stop offset="0.09" stop-color="#FF0BF8"/>
<stop offset="0.22" stop-color="#FF1CE6"/>
<stop offset="0.36" stop-color="#FF38C7"/>
<stop offset="0.53" stop-color="#FF5E9D"/>
<stop offset="0.7" stop-color="#FF9067"/>
<stop offset="0.89" stop-color="#FFCB27"/>
<stop offset="0.99" stop-color="#FFEF00"/>
</radialGradient>
<radialGradient id="paint1_radial_12_32" cx="0" cy="0" r="1" gradientUnits="userSpaceOnUse" gradientTransform="translate(29.2 18.96) rotate(90) scale(5)">
<stop stop-color="#FF06FF"/>
<stop offset="0.99" stop-color="#FFEF00"/>
</radialGradient>
<radialGradient id="paint2_radial_12_32" cx="0" cy="0" r="1" gradientUnits="userSpaceOnUse" gradientTransform="translate(27 22) rotate(90)">
<stop stop-color="#4D4D4D"/>
<stop offset="0.21" stop-color="#484848"/>
<stop offset="0.46" stop-color="#3A3A3A"/>
<stop offset="0.72" stop-color="#222222"/>
<stop offset="1"/>
</radialGradient>
<radialGradient id="paint3_radial_12_32" cx="0" cy="0" r="1" gradientUnits="userSpaceOnUse" gradientTransform="translate(27 16) rotate(90)">
<stop stop-color="#4D4D4D"/>
<stop offset="0.21" stop-color="#484848"/>
<stop offset="0.46" stop-color="#3A3A3A"/>
<stop offset="0.72" stop-color="#222222"/>
<stop offset="1"/>
</radialGradient>
<radialGradient id="paint4_radial_12_32" cx="0" cy="0" r="1" gradientUnits="userSpaceOnUse" gradientTransform="translate(9.064 18.98) rotate(90) scale(5.47 7.7674)">
<stop stop-color="#FF06FF"/>
<stop offset="0.13" stop-color="#FF09FB"/>
<stop offset="0.26" stop-color="#FF13EF"/>
<stop offset="0.38" stop-color="#FF25DC"/>
<stop offset="0.5" stop-color="#FF3EC1"/>
<stop offset="0.62" stop-color="#FF5E9E"/>
<stop offset="0.74" stop-color="#FF8573"/>
<stop offset="0.86" stop-color="#FFB341"/>
<stop offset="0.98" stop-color="#FFE708"/>
<stop offset="0.99" stop-color="#FFEF00"/>
</radialGradient>
<clipPath id="clip0_12_32">
<rect width="38" height="36.99" fill="white" transform="translate(36.99) rotate(90)"/>
</clipPath>
</defs>
</svg>
