<svg width="103" height="100" viewBox="0 0 103 100" fill="none" xmlns="http://www.w3.org/2000/svg">
<g clip-path="url(#clip0_58_47)">
<path d="M19.5042 26.2736C21.061 28.3879 22.94 30.2347 24.9531 31.8673C25.9731 32.6702 27.02 33.4463 28.0937 34.169C29.1942 34.8916 30.241 35.5607 31.4758 36.203L30.7779 35.7213L38.9379 43.4293C38.9379 43.4293 39.0989 43.5899 39.2063 43.6434L39.6089 43.8575L48.1447 48.2468C49.621 48.9962 51.4195 48.4342 52.171 46.9622C52.9226 45.4901 52.3589 43.6969 50.8826 42.9476C50.6679 42.8405 50.4263 42.7334 50.1847 42.7067L40.8168 40.5388L41.4879 40.967L33.9452 32.6434C33.811 32.4828 33.65 32.3758 33.4621 32.2687L33.2473 32.1617C32.2273 31.8137 31.0731 31.332 30.0263 30.8235C28.9526 30.315 27.8789 29.7529 26.8589 29.1641C24.7921 27.9597 22.8595 26.568 21.1952 24.9086C20.7658 24.4536 20.0947 24.4536 19.6652 24.8819C19.2895 25.2566 19.2358 25.8721 19.5579 26.2736H19.5042Z" fill="#FFEF00"/>
<path d="M1.68105 62.0035C5.35842 61.6823 8.68684 60.3174 11.8542 58.8721C15.0484 57.3733 18.0279 55.6605 21.0074 53.7067L20.2021 54.1081L34.4553 49.7724H33.5963L45.6216 54.4561C47.581 55.2055 49.7821 54.242 50.5337 52.315C51.2853 50.3879 50.3189 48.1665 48.3863 47.4171C48.0105 47.2833 47.6347 47.203 47.2589 47.1763L34.3747 46.3198H33.8379C33.8379 46.3198 33.6232 46.3198 33.5426 46.3198L19.021 49.6118C18.7795 49.6653 18.5647 49.7724 18.3768 49.8794L18.2158 49.9865C15.7463 52.0741 13.0353 54.0814 10.2437 55.8478C7.4521 57.5875 4.49947 59.1665 1.43947 59.8089H1.35894C0.768416 59.9427 0.392626 60.5315 0.526837 61.0935C0.634205 61.6288 1.14421 62.0035 1.68105 61.95V62.0035Z" fill="#FFEF00"/>
<path d="M12.9547 99.286C15.1558 97.6534 16.8469 95.5926 18.4037 93.4782C19.9605 91.3639 21.2758 89.1157 22.5105 86.8408C23.7453 84.5658 24.8726 82.2374 25.9195 79.8554C26.9663 77.4734 27.9326 75.1181 28.8184 72.6291L28.2011 73.6461L38.5621 63.0476L37.8911 63.449L48.7084 61.8967C50.8021 61.6023 52.2247 59.6753 51.9295 57.5877C51.6342 55.5001 49.7016 54.0816 47.6079 54.376C47.1516 54.4296 46.6953 54.5902 46.3195 54.8043L36.7637 60.0768L36.2805 60.3444C36.2805 60.3444 36.1463 60.4247 36.0926 60.4782L25.0069 70.3006C24.7384 70.5415 24.5774 70.8091 24.47 71.1035L24.4163 71.2909C23.1279 76.0014 21.4905 80.8189 19.5042 85.342C18.5111 87.6169 17.4105 89.8383 16.1221 91.9259C14.8337 94.0135 13.4111 96.0208 11.6395 97.5731C11.1832 97.9746 11.1563 98.6704 11.5321 99.1254C11.9079 99.5537 12.5521 99.6072 12.9816 99.286H12.9547Z" fill="#FFEF00"/>
<path d="M83.4958 26.2736C81.9389 28.3879 80.06 30.2347 78.0468 31.8673C77.0268 32.6702 75.98 33.4463 74.9063 34.169C73.8058 34.8916 72.7589 35.5607 71.5242 36.203L72.2221 35.7213L64.0621 43.4293C64.0621 43.4293 63.901 43.5899 63.7937 43.6434L63.391 43.8575L54.8553 48.2468C53.3789 48.9962 51.5805 48.4342 50.8289 46.9622C50.0774 45.4901 50.641 43.6969 52.1174 42.9476C52.3321 42.8405 52.5737 42.7334 52.8153 42.7067L62.1831 40.5388L61.5121 40.967L69.0547 32.6434C69.1889 32.4828 69.35 32.3758 69.5379 32.2687L69.7526 32.1617C70.7726 31.8137 71.9268 31.332 73.0005 30.8235C74.0742 30.315 75.1479 29.7529 76.1679 29.1641C78.2347 27.9597 80.1674 26.568 81.8316 24.9086C82.261 24.4536 82.9321 24.4536 83.3616 24.8819C83.7374 25.2566 83.791 25.8721 83.4689 26.2736H83.4958Z" fill="#FFEF00"/>
<path d="M101.319 62.0035C97.6416 61.6823 94.3131 60.3174 91.1458 58.8721C87.9515 57.3733 84.9721 55.6605 81.9926 53.7067L82.7979 54.1081L68.5447 49.7724H69.4037L57.3784 54.4561C55.4189 55.2055 53.2179 54.242 52.4663 52.315C51.7147 50.3879 52.681 48.1665 54.6137 47.4171C54.9894 47.2833 55.3652 47.203 55.741 47.1763L68.6252 46.3198H69.1621C69.1621 46.3198 69.3768 46.3198 69.4573 46.3198L83.9789 49.6118C84.2205 49.6653 84.4352 49.7724 84.6231 49.8794L84.7842 49.9865C87.2537 52.0741 89.9647 54.0814 92.7563 55.8478C95.5479 57.5875 98.5005 59.1665 101.561 59.8089H101.641C102.232 59.9427 102.607 60.5315 102.473 61.0935C102.366 61.6288 101.856 62.0035 101.319 61.95V62.0035Z" fill="#FFEF00"/>
<path d="M90.0184 99.286C87.8174 97.6534 86.0995 95.5926 84.5695 93.4782C83.0126 91.3639 81.6705 89.1157 80.4626 86.8408C79.2279 84.5658 78.1005 82.2374 77.0537 79.8554C76.0069 77.4734 75.0405 75.1181 74.1548 72.6291L74.7721 73.6461L64.4111 63.0476L65.0821 63.449L54.2648 61.8967C52.1711 61.6023 50.7484 59.6753 51.0437 57.5877C51.339 55.5001 53.2716 54.0816 55.3653 54.376C55.8216 54.4296 56.2779 54.5902 56.6537 54.8043L66.2095 60.0768L66.6926 60.3444C66.6926 60.3444 66.8269 60.4247 66.8805 60.4782L77.9663 70.3006C78.2348 70.5415 78.4226 70.8091 78.53 71.1035L78.6105 71.2909C79.899 76.0014 81.5363 80.8189 83.5226 85.342C84.5158 87.6169 85.6163 89.8383 86.9047 91.9259C88.1932 94.0135 89.6158 96.0208 91.3874 97.5731C91.8437 97.9746 91.8705 98.6704 91.4948 99.1254C91.119 99.5537 90.4748 99.6072 90.0453 99.286H90.0184Z" fill="#FFEF00"/>
<path d="M43.4474 42.6802C43.4474 46.8822 46.1316 67.3834 51.5 67.3834C56.8684 67.3834 59.5527 46.8822 59.5527 42.6802C59.5527 38.4783 56.0632 35.2666 51.5 35.2666C46.9369 35.2666 43.4474 38.4783 43.4474 42.6802Z" fill="url(#paint0_radial_58_47)"/>
<path d="M56.949 16.5852L62.2368 19.1277C62.2368 15.5681 60.7069 9.70682 54.2111 8.50244C54.2111 8.50244 56.4121 10.8041 56.9758 16.5852H56.949Z" fill="#4E342E"/>
<path d="M48.789 8.50244C42.2932 9.70682 40.7632 15.5681 40.7632 19.1277L46.0511 16.5852C46.6148 10.8309 48.8158 8.50244 48.8158 8.50244H48.789Z" fill="#4E342E"/>
<path d="M64.9211 27.3977C64.9211 35.1057 56.8685 37.9427 51.5 37.9427C46.1316 37.9427 38.079 35.0522 38.079 27.3977C38.079 20.894 43.4474 11.1787 51.5 11.1787C59.5527 11.1787 64.9211 20.9208 64.9211 27.3977Z" fill="url(#paint1_radial_58_47)"/>
<path d="M62.2368 27.2374C62.2368 28.8433 61.1631 29.9138 59.5526 29.9138C57.9421 29.9138 56.8684 28.8433 56.8684 27.2374C56.8684 25.6316 57.9421 24.561 59.5526 24.561C61.1631 24.561 62.2368 25.6316 62.2368 27.2374Z" fill="url(#paint2_radial_58_47)"/>
<path d="M46.1316 27.2374C46.1316 28.8433 45.0579 29.9138 43.4474 29.9138C41.8369 29.9138 40.7632 28.8433 40.7632 27.2374C40.7632 25.6316 41.8369 24.561 43.4474 24.561C45.0579 24.561 46.1316 25.6316 46.1316 27.2374Z" fill="url(#paint3_radial_58_47)"/>
<path d="M38.079 80.7651C38.079 91.203 46.1316 99.4999 51.5 99.4999C56.8685 99.4999 64.9211 91.203 64.9211 80.7651C64.9211 70.3271 62.2369 62.0303 51.5 62.0303C40.7632 62.0303 38.079 70.3271 38.079 80.7651Z" fill="url(#paint4_radial_58_47)"/>
<path d="M22.2689 1.43651C22.7521 0.580063 23.8258 0.258895 24.6847 0.713883C27.9595 2.48031 30.2142 5.31729 31.8784 8.23456C32.7105 9.70658 33.3816 11.2321 33.9721 12.7844C34.4016 13.9621 34.7774 15.1397 35.0726 16.3708C36.5489 16.1567 37.9716 16.0496 39.421 16.0496C41.3 16.0496 43.2058 16.3173 45.0579 16.8258C45.5947 16.9864 45.9437 17.5217 45.8095 18.0837C45.6753 18.6458 45.1116 19.0205 44.5479 18.8866C42.8837 18.5119 41.1658 18.3781 39.4479 18.4584C37.7568 18.5119 35.9584 18.7528 34.4016 19.1543C33.7037 19.3416 32.9521 18.9134 32.791 18.1908V18.1372C32.4153 16.7187 31.8784 15.2467 31.2879 13.8282C30.6974 12.4365 29.9995 11.0715 29.221 9.78688C27.6374 7.2443 25.5974 5.04965 23.1279 3.87203H23.101C23.101 3.87203 23.0474 3.84527 23.0205 3.81851C22.1616 3.33675 21.8395 2.26619 22.3226 1.40975L22.2689 1.43651Z" fill="#FF06FF"/>
<path d="M80.731 1.43651C80.2479 0.580063 79.1742 0.258895 78.3152 0.713883C75.0405 2.48031 72.7858 5.31729 71.1484 8.23456C70.3163 9.70658 69.6452 11.2321 69.0547 12.7844C68.6252 13.9621 68.2494 15.1397 67.9542 16.3708C66.4779 16.1567 65.0552 16.0496 63.6058 16.0496C61.7268 16.0496 59.821 16.3173 57.9689 16.8258C57.4321 16.9864 57.0831 17.5217 57.2173 18.0837C57.3516 18.6458 57.9152 19.0205 58.4789 18.8866C60.1431 18.5119 61.861 18.3781 63.5789 18.4584C65.27 18.5119 67.0684 18.7528 68.6252 19.1543C69.3231 19.3416 70.0747 18.9134 70.2358 18.1908V18.1372C70.6116 16.7187 71.1484 15.2467 71.7389 13.8282C72.3295 12.4365 73.0273 11.0715 73.8058 9.78688C75.3895 7.2443 77.4295 5.04965 79.8989 3.87203H79.9258C79.9258 3.87203 79.9795 3.84527 80.0063 3.81851C80.8652 3.33675 81.1873 2.26619 80.7042 1.40975L80.731 1.43651Z" fill="#FF06FF"/>
</g>
<defs>
<radialGradient id="paint0_radial_58_47" cx="0" cy="0" r="1" gradientUnits="userSpaceOnUse" gradientTransform="translate(51.4463 49.433) scale(8.56263 17.3316)">
<stop stop-color="#FF06FF"/>
<stop offset="0.09" stop-color="#FF0BF8"/>
<stop offset="0.22" stop-color="#FF1CE6"/>
<stop offset="0.36" stop-color="#FF38C7"/>
<stop offset="0.53" stop-color="#FF5E9D"/>
<stop offset="0.7" stop-color="#FF9067"/>
<stop offset="0.89" stop-color="#FFCB27"/>
<stop offset="0.99" stop-color="#FFEF00"/>
</radialGradient>
<radialGradient id="paint1_radial_58_47" cx="0" cy="0" r="1" gradientUnits="userSpaceOnUse" gradientTransform="translate(51.3927 21.349) scale(13.4211 13.382)">
<stop stop-color="#FF06FF"/>
<stop offset="0.99" stop-color="#FFEF00"/>
</radialGradient>
<radialGradient id="paint2_radial_58_47" cx="0" cy="0" r="1" gradientUnits="userSpaceOnUse" gradientTransform="translate(59.5526 27.2374) scale(2.68421 2.6764)">
<stop stop-color="#4D4D4D"/>
<stop offset="0.21" stop-color="#484848"/>
<stop offset="0.46" stop-color="#3A3A3A"/>
<stop offset="0.72" stop-color="#222222"/>
<stop offset="1"/>
</radialGradient>
<radialGradient id="paint3_radial_58_47" cx="0" cy="0" r="1" gradientUnits="userSpaceOnUse" gradientTransform="translate(43.4474 27.2374) scale(2.68421 2.6764)">
<stop stop-color="#4D4D4D"/>
<stop offset="0.21" stop-color="#484848"/>
<stop offset="0.46" stop-color="#3A3A3A"/>
<stop offset="0.72" stop-color="#222222"/>
<stop offset="1"/>
</radialGradient>
<radialGradient id="paint4_radial_58_47" cx="0" cy="0" r="1" gradientUnits="userSpaceOnUse" gradientTransform="translate(51.4463 75.241) scale(14.6826 20.7887)">
<stop stop-color="#FF06FF"/>
<stop offset="0.13" stop-color="#FF09FB"/>
<stop offset="0.26" stop-color="#FF13EF"/>
<stop offset="0.38" stop-color="#FF25DC"/>
<stop offset="0.5" stop-color="#FF3EC1"/>
<stop offset="0.62" stop-color="#FF5E9E"/>
<stop offset="0.74" stop-color="#FF8573"/>
<stop offset="0.86" stop-color="#FFB341"/>
<stop offset="0.98" stop-color="#FFE708"/>
<stop offset="0.99" stop-color="#FFEF00"/>
</radialGradient>
<clipPath id="clip0_58_47">
<rect width="102" height="99" fill="white" transform="translate(0.5 0.5)"/>
</clipPath>
</defs>
</svg>
